<svg width="44" height="46" viewBox="0 0 44 46" fill="none" xmlns="http://www.w3.org/2000/svg">
<path d="M34.4787 6.01726C32.2689 3.39275 32.187 1.74493 28.3075 1.3739C28.3075 1.3739 23.9752 1.37936 23.3314 1.37936C12.4459 1.39573 4.25598 9.57479 1.95885 22.7246C0.692982 29.9815 1.72423 35.8416 4.95438 39.6775C7.50795 42.7112 11.3656 44.3099 16.1235 44.299C16.5109 44.299 20.7178 44.3099 21.0997 44.2935C31.4122 43.7206 35.2808 35.6398 37.496 22.9592C38.7619 15.7241 37.7198 9.86398 34.4787 6.01726Z" fill="#FBCD18" style="fill:#FBCD18;fill:color(display-p3 0.9843 0.8039 0.0941);fill-opacity:1;"/>
<path d="M14.7314 43.1367C12.216 41.6526 6.87971 36.9329 6.23586 29.4631H2.70013C2.26908 29.5286 1.83259 29.5723 1.39062 29.5887C1.71801 34.6139 3.87872 40.9215 10.9447 43.5678C10.9447 43.5678 17.907 45.0083 14.7259 43.1367H14.7314Z" fill="#CE8A13" style="fill:#CE8A13;fill:color(display-p3 0.8078 0.5412 0.0745);fill-opacity:1;"/>
<path d="M4.86719 13.5852H9.33594C9.33594 13.5852 15.3925 2.79258 25.6886 1.41213C16.8875 1.08475 7.31709 6.67204 4.86719 13.5852Z" fill="#FFEFBD" style="fill:#FFEFBD;fill:color(display-p3 1.0000 0.9373 0.7412);fill-opacity:1;"/>
<path d="M34.4787 6.01726C32.2689 3.39275 32.187 1.74493 28.3075 1.3739C28.3075 1.3739 23.9752 1.37936 23.3314 1.37936C12.4459 1.39573 4.25598 9.57479 1.95885 22.7246C0.692982 29.9815 1.72423 35.8416 4.95438 39.6775C7.50795 42.7112 11.3656 44.3099 16.1235 44.299C16.5109 44.299 20.7178 44.3099 21.0997 44.2935C31.4122 43.7206 35.2808 35.6398 37.496 22.9592C38.7619 15.7241 37.7198 9.86398 34.4787 6.01726Z" stroke="black" style="stroke:black;stroke-opacity:1;" stroke-width="1.6369" stroke-linecap="round" stroke-linejoin="round"/>
<path d="M39.4537 6.00639C36.8947 2.9672 33.0425 1.36304 28.3118 1.37396C17.4264 1.39033 9.23645 9.56939 6.93932 22.7192C5.67345 29.9761 6.7047 35.8362 9.93485 39.6721C12.4884 42.7058 16.3461 44.3045 21.104 44.2936C31.9894 44.2772 40.1794 36.0981 42.4765 22.9483C43.7424 15.7132 42.7002 9.85311 39.4591 6.00639H39.4537Z" fill="#FBCD18" style="fill:#FBCD18;fill:color(display-p3 0.9843 0.8039 0.0941);fill-opacity:1;"/>
<path d="M11.8316 41.8109L7.33008 41.8218" stroke="black" style="stroke:black;stroke-opacity:1;" stroke-width="1.09127" stroke-linecap="round" stroke-linejoin="round"/>
<path d="M9.24091 38.679L4.19922 38.6844" stroke="black" style="stroke:black;stroke-opacity:1;" stroke-width="1.09127" stroke-linecap="round" stroke-linejoin="round"/>
<path d="M7.56603 35.547L2.58984 35.5525" stroke="black" style="stroke:black;stroke-opacity:1;" stroke-width="1.09127" stroke-linecap="round" stroke-linejoin="round"/>
<path d="M6.73595 32.4097L1.75977 32.4151" stroke="black" style="stroke:black;stroke-opacity:1;" stroke-width="1.09127" stroke-linecap="round" stroke-linejoin="round"/>
<path d="M6.41448 29.2722L1.44922 29.2777" stroke="black" style="stroke:black;stroke-opacity:1;" stroke-width="1.09127" stroke-linecap="round" stroke-linejoin="round"/>
<path d="M6.50158 26.1349L1.52539 26.1403" stroke="black" style="stroke:black;stroke-opacity:1;" stroke-width="1.09127" stroke-linecap="round" stroke-linejoin="round"/>
<path d="M6.83986 22.9974L1.86914 23.0029" stroke="black" style="stroke:black;stroke-opacity:1;" stroke-width="1.09127" stroke-linecap="round" stroke-linejoin="round"/>
<path d="M7.2994 19.86L2.57422 19.8654" stroke="black" style="stroke:black;stroke-opacity:1;" stroke-width="1.09127" stroke-linecap="round" stroke-linejoin="round"/>
<path d="M8.68445 16.7172L3.38086 16.7281" stroke="black" style="stroke:black;stroke-opacity:1;" stroke-width="1.09127" stroke-linecap="round" stroke-linejoin="round"/>
<path d="M9.84094 13.5798L4.64648 13.5853" stroke="black" style="stroke:black;stroke-opacity:1;" stroke-width="1.09127" stroke-linecap="round" stroke-linejoin="round"/>
<path d="M11.6688 10.4369L7.05273 10.4478" stroke="black" style="stroke:black;stroke-opacity:1;" stroke-width="1.09127" stroke-linecap="round" stroke-linejoin="round"/>
<path d="M14.0645 7.29956L9.25195 7.30502" stroke="black" style="stroke:black;stroke-opacity:1;" stroke-width="1.09127" stroke-linecap="round" stroke-linejoin="round"/>
<path d="M18.1669 4.15662L13.5508 4.16208" stroke="black" style="stroke:black;stroke-opacity:1;" stroke-width="1.09127" stroke-linecap="round" stroke-linejoin="round"/>
<path d="M39.7003 6.07175L10.0723 14.1526C8.48455 17.1263 7.20232 20.9785 6.84766 25.6218L15.5723 23.161C16.058 19.6362 18.2132 13.8361 26.2559 12.5975C30.4846 11.9428 33.4037 14.8347 34.6477 17.7811L42.2375 15.6367L42.5321 16.6843L35.0079 18.8069C35.1606 19.3361 35.2589 19.8545 35.2971 20.3401L42.8104 18.2176C42.805 18.1685 42.7832 18.1194 42.7941 18.0648C43.3506 14.6546 41.8392 8.37978 39.7003 6.06628V6.07175Z" fill="#FFEFBD" style="fill:#FFEFBD;fill:color(display-p3 1.0000 0.9373 0.7412);fill-opacity:1;"/>
<path d="M6.79211 26.4021C6.75937 27.0514 6.73757 27.7171 6.74302 28.3992L15.5387 25.9165C15.4841 25.8565 15.4131 25.2508 15.4568 24.3232L6.89032 26.7404L6.79211 26.4021Z" fill="#FFEFBD" style="fill:#FFEFBD;fill:color(display-p3 1.0000 0.9373 0.7412);fill-opacity:1;"/>
<path d="M33.392 23.5322C34.4014 19.68 33.5503 15.8224 29.458 14.2291C25.5022 12.685 20.6078 15.2385 18.5508 18.1686C21.2408 15.9806 24.3072 14.7475 28.3667 15.8333C32.0771 16.8263 33.9104 20.5803 33.392 23.5322Z" fill="#FFEFBD" style="fill:#FFEFBD;fill:color(display-p3 1.0000 0.9373 0.7412);fill-opacity:1;"/>
<path d="M32.7144 14.4692C30.8647 12.8105 28.4803 12.0903 25.6703 12.3522C23.3786 12.565 21.2124 13.4653 19.2372 15.0203C17.1693 16.6518 15.707 18.6815 14.8995 21.0496C14.4848 22.2663 14.332 23.4667 14.2392 24.4816C14.0592 26.4677 14.3866 28.0501 15.2378 29.316C15.9253 30.3363 16.1435 31.3512 15.9307 32.5134C15.827 33.0972 16.149 33.6265 16.2908 33.8283C16.7328 34.4394 17.3766 34.7668 18.1514 34.7614C18.4352 34.7614 18.7407 34.7177 19.0572 34.6304C19.8811 34.4067 20.4649 33.9047 20.8632 33.0808C21.0651 33.8502 21.6708 34.4504 22.4892 34.625C23.4768 34.8323 24.6991 34.303 25.2993 33.4246C25.3866 33.2936 25.4575 33.1572 25.523 33.0263C25.6921 34.003 26.3087 34.5704 27.3617 34.7232C27.4763 34.7396 27.5964 34.7505 27.7164 34.7505C28.9495 34.7505 30.4228 33.8611 30.6465 32.437C30.8047 31.4603 31.2794 30.5764 32.1142 29.7415C33.0418 28.8085 33.6529 28.0174 34.1003 27.1716C34.8151 25.8239 35.1534 24.4434 35.3662 23.3903C36.0864 19.6964 35.1971 16.7009 32.7199 14.4747L32.7144 14.4692ZM34.766 22.8611C34.4877 23.7123 33.8875 24.4925 33.7347 25.3765C33.702 25.5565 33.6256 25.682 33.5274 25.7912C32.7799 28.1319 30.5646 29.5233 29.4679 31.6785C29.5606 31.8531 29.5879 32.0714 29.4843 32.3006C29.2933 32.7425 29.1569 32.8571 28.7477 32.9826C28.3439 33.19 27.8692 33.2554 27.4163 33.1299C27.0999 33.0426 26.7179 32.8244 26.5706 32.5134C26.4723 32.3006 26.4124 31.1493 26.1886 31.062C25.8176 30.9201 25.6375 31.3512 25.3811 31.6185C25.1574 31.8586 25.0101 32.1369 24.7209 32.4206C24.4372 32.6989 24.0607 32.9553 23.646 32.9062C23.6351 32.9062 23.6296 32.9062 23.6187 32.9008C23.3786 33.0481 23.0894 33.1027 22.8384 33.0208C22.5602 32.9335 21.9381 32.8244 21.9654 32.4752C21.9872 32.1478 22.0091 31.8804 21.9163 31.6567C21.6926 31.0947 21.4907 30.6309 20.8414 30.7783C20.8196 30.7783 20.8032 30.7946 20.7814 30.8001C20.7705 31.1002 20.6505 31.4003 20.4267 31.6349C20.3886 31.6731 20.2685 31.8313 20.263 31.8368C20.2357 31.875 20.2085 31.9186 20.1812 31.9568C20.0939 32.1478 20.0011 32.3333 19.8975 32.5188C19.6956 32.868 19.3409 33.0754 18.9644 33.119C18.9317 33.1463 18.8989 33.1736 18.8662 33.1954C18.2878 33.5392 17.5021 33.3373 17.1638 32.7535C16.8965 32.2897 16.8583 31.8149 17.0111 31.3402C16.9183 31.1656 16.8583 30.9747 16.8528 30.7673C16.8419 30.2981 16.7164 29.7525 16.52 29.3487C16.4545 29.2177 16.4218 29.0868 16.3945 28.9504C16.1544 28.8685 15.9471 28.683 15.8489 28.372C13.8682 22.0208 17.3494 16.4226 23.144 13.6017C25.6485 12.3794 29.0587 12.5486 31.3394 14.2292C32.4034 15.0094 33.2491 15.806 33.9039 16.9628C34.1767 17.4484 34.2804 17.9995 34.3131 18.5724C34.4932 18.7197 34.6187 18.938 34.6187 19.2381C34.6187 19.5436 34.6187 19.8383 34.6132 20.1275C34.6624 20.2257 34.7005 20.3403 34.7115 20.4658C34.7933 21.2678 35.0061 22.1245 34.766 22.8774V22.8611Z" fill="#CE8A13" style="fill:#CE8A13;fill:color(display-p3 0.8078 0.5412 0.0745);fill-opacity:1;"/>
<path d="M31.1112 23.0848C30.7129 22.6156 30.1509 22.3373 29.5125 22.2773L28.9778 22.2664V22.2773C27.521 22.4137 26.2278 23.5868 25.9714 25.0546C25.8404 25.8239 26.0205 26.5496 26.4788 27.1007C26.9317 27.6354 27.5919 27.9355 28.3448 27.9355H28.3503C29.889 27.9355 31.3895 26.6424 31.635 25.12C31.7605 24.3507 31.5695 23.625 31.1058 23.0848H31.1112ZM30.5383 25.0109C30.271 25.3874 29.9545 25.6766 29.6489 26.0149C29.3543 26.3422 28.8959 26.435 28.4867 26.3368C28.2412 26.4678 27.9465 26.5169 27.6246 26.4296C27.0299 26.2659 26.5006 25.5293 26.7571 24.9018C26.9862 24.3398 27.2536 23.7669 27.6955 23.3358C28.3612 22.692 29.1906 22.5119 30.0527 22.8775C30.8602 23.2158 31.0185 24.3452 30.5438 25.0109H30.5383Z" fill="#CE8A13" style="fill:#CE8A13;fill:color(display-p3 0.8078 0.5412 0.0745);fill-opacity:1;"/>
<path d="M22.6658 23.1229C22.2729 22.6482 21.7109 22.3536 21.0344 22.2881L20.4833 22.2717V22.2827C19.0755 22.4245 17.7714 23.5922 17.5041 24.9999C17.3568 25.7802 17.5314 26.5222 17.9952 27.0842C18.448 27.6299 19.1137 27.93 19.8776 27.9354H19.8885C21.4054 27.9354 22.8677 26.6968 23.146 25.18C23.2933 24.3997 23.1187 23.6685 22.6658 23.1175V23.1229ZM21.3727 25.8511C21.1653 26.053 20.9088 26.1621 20.6415 26.1948C20.3468 26.4458 19.9485 26.5604 19.5284 26.4458C18.9009 26.2767 18.448 25.5619 18.6608 24.9181C18.95 24.0396 19.7576 22.9538 20.8052 23.0029C21.5145 23.0356 22.2402 23.5922 22.1693 24.3779C22.1147 24.9835 21.7982 25.431 21.3727 25.8511Z" fill="#CE8A13" style="fill:#CE8A13;fill:color(display-p3 0.8078 0.5412 0.0745);fill-opacity:1;"/>
<path d="M25.3059 29.6105C25.4914 29.3486 25.5514 29.0212 25.4641 28.7157C25.3441 28.2846 25.1968 27.8591 25.0222 27.4444C24.8803 27.1061 24.5747 26.9042 24.2037 26.9042C23.8709 26.9042 23.5489 27.0679 23.3143 27.3571C22.9924 27.7499 22.6814 28.1755 22.3922 28.6284C22.1739 28.9667 22.1303 29.3322 22.2776 29.6323C22.414 29.9106 22.6978 30.0852 23.0524 30.1125C23.1397 30.118 23.227 30.1234 23.3143 30.1234H23.7181H24.1218C24.2092 30.1234 24.2965 30.1234 24.3783 30.118C24.7603 30.0961 25.0931 29.9106 25.3059 29.616V29.6105Z" fill="#CE8A13" style="fill:#CE8A13;fill:color(display-p3 0.8078 0.5412 0.0745);fill-opacity:1;"/>
<path d="M32.7368 14.1636C30.9417 12.554 28.6336 11.861 25.9 12.112C23.6575 12.3193 21.5404 13.1978 19.6089 14.7202C17.5846 16.3189 16.155 18.305 15.3583 20.6239C14.9491 21.8134 14.8073 22.992 14.7145 23.9905C14.5399 25.9111 14.8564 27.4334 15.6694 28.6502C16.3951 29.7305 16.6297 30.8109 16.406 32.0495C16.3187 32.5406 16.6242 33.0207 16.717 33.1571C17.1044 33.6973 17.6718 33.9811 18.3539 33.9811C18.6158 33.9811 18.8941 33.9374 19.1887 33.861C20.0836 33.6155 20.6674 33.0044 21.022 31.9404C21.1475 31.5694 21.2185 31.5693 21.2567 31.553C21.2567 31.553 21.2894 31.613 21.273 31.8476C21.1912 32.8134 21.8132 33.6537 22.7463 33.8501C23.6411 34.0411 24.7269 33.5718 25.2725 32.7643C25.4526 32.5024 25.5617 32.2132 25.6709 31.9295L25.7472 31.7385C25.8127 31.5694 25.8836 31.5693 25.9437 31.5584C25.9437 31.5584 25.9546 31.5802 25.9546 31.6184C25.9546 31.6839 25.9546 31.744 25.9546 31.8094C25.9546 31.8804 25.9546 31.9458 25.9546 32.0167C25.9818 33.1571 26.522 33.7846 27.6078 33.9429C28.8028 34.1175 30.3688 33.2499 30.587 31.8803C30.7507 30.8436 31.2581 29.9106 32.1311 29.0376C33.0369 28.1264 33.6317 27.357 34.0682 26.5331C34.7666 25.2127 35.0939 23.8595 35.3067 22.8283C36.0052 19.238 35.143 16.3243 32.7423 14.1691L32.7368 14.1636ZM27.0295 31.7221C27.0295 31.6239 27.0295 31.5257 27.0295 31.4275C26.9967 30.8764 26.582 30.4944 26.0255 30.4944H25.9437C25.4089 30.5326 24.9342 30.9091 24.716 31.493C24.6069 31.7931 24.4868 32.1095 24.3013 32.3332C23.9685 32.737 23.4228 32.917 22.9536 32.7697C22.5553 32.6442 22.3206 32.2568 22.3534 31.7821C22.3698 31.4929 22.3425 31.2638 22.2715 31.0783C22.0969 30.6363 21.6277 30.4126 21.0984 30.5326C20.6292 30.6363 20.2909 30.931 20.1108 31.3893C20.0781 31.4711 20.0508 31.553 20.0235 31.6348C19.9962 31.7112 19.9744 31.7876 19.9417 31.864C19.6852 32.4969 19.1123 32.9225 18.5121 32.9225C18.283 32.9225 18.0701 32.8625 17.8792 32.7425C17.5245 32.5242 17.4045 32.2514 17.4809 31.8312C17.6882 30.6581 17.5082 29.5778 16.9407 28.6229C16.5533 27.9627 16.2532 27.357 16.024 26.7677C15.773 26.113 15.6966 25.3382 15.7785 24.2578C15.8713 22.9811 16.0131 21.9116 16.3951 20.8367C17.2517 18.4359 18.774 16.4826 20.9293 15.0312C22.7899 13.7762 24.7487 13.1433 26.7403 13.1378C27.0131 13.1378 27.2968 13.1487 27.5751 13.1705C29.845 13.3615 31.6565 14.3273 32.9605 16.0351C34.03 17.4429 34.5319 19.1289 34.4446 21.055C34.4283 21.426 34.3792 21.8134 34.3246 22.1899C34.3028 22.37 34.2755 22.55 34.2646 22.6973C34.0081 23.7777 33.7353 24.8308 33.2279 25.8565C32.8896 26.5331 32.4422 27.177 31.8583 27.8099C31.7437 27.9354 31.6292 28.0555 31.5146 28.1755C31.2854 28.421 31.0562 28.6666 30.838 28.923C30.1669 29.7142 29.7413 30.609 29.5339 31.6676C29.3975 32.3496 28.9228 32.797 28.2572 32.8625C27.4278 32.9444 27.084 32.7261 27.0295 32.0004C27.024 31.9076 27.024 31.8149 27.0295 31.7167V31.7221Z" fill="black" style="fill:black;fill-opacity:1;"/>
<path d="M28.5565 27.1496C29.9534 27.1496 31.3502 25.9492 31.5685 24.5633C31.7922 23.1556 30.8482 22.0261 29.4514 22.0261V23.1174C29.8006 23.1174 30.0843 23.232 30.2753 23.4557C30.4717 23.6903 30.5536 24.0232 30.4935 24.3887C30.3571 25.2454 29.4132 26.0529 28.5511 26.0584C28.2073 26.0584 27.9127 25.9329 27.7272 25.7092C27.5307 25.4745 27.4544 25.1417 27.5199 24.7761C27.6726 23.8813 28.5565 23.1228 29.4459 23.1174L29.4568 22.0261H29.4405C28.0218 22.037 26.6905 23.1774 26.4449 24.5906C26.1994 25.9984 27.1488 27.1442 28.5511 27.1496H28.5565Z" fill="black" style="fill:black;fill-opacity:1;"/>
<path d="M20.9884 22.0371C20.9884 22.0371 20.972 22.0371 20.9611 22.0371L20.9774 23.1284C21.3376 23.1284 21.6268 23.2539 21.8123 23.4776C22.0033 23.7122 22.0742 24.0505 22.0032 24.427C21.8396 25.3 20.9447 26.0694 20.0772 26.0694C19.7225 26.0694 19.4388 25.9438 19.2478 25.7147C19.0459 25.4691 18.975 25.1308 19.0459 24.7544C19.2096 23.8923 20.1045 23.1338 20.9666 23.1284V22.0371C19.5861 22.0371 18.2384 23.1666 17.9765 24.547C17.7036 25.9766 18.6531 27.1552 20.0772 27.1606H20.0881C21.474 27.1606 22.8217 26.0148 23.0782 24.6289C23.3455 23.1993 22.4179 22.0535 20.9884 22.0371Z" fill="black" style="fill:black;fill-opacity:1;"/>
<path d="M24.9731 27.035C24.8694 26.7841 24.6512 26.6585 24.4056 26.664C24.171 26.664 23.92 26.7786 23.7236 27.0187C23.3962 27.417 23.0961 27.8371 22.8178 28.2682C22.485 28.7811 22.7087 29.2885 23.2707 29.3322C23.3471 29.3376 23.4289 29.3376 23.5108 29.3376C23.6472 29.3376 23.7836 29.3322 23.9145 29.3322C24.051 29.3322 24.1819 29.3322 24.3183 29.3322C24.4002 29.3322 24.4765 29.3321 24.5584 29.3267C25.1368 29.2885 25.5406 28.792 25.3987 28.2736C25.2786 27.848 25.1368 27.4334 24.9676 27.035H24.9731Z" fill="black" style="fill:black;fill-opacity:1;"/>
<path d="M39.4537 6.00639C36.8947 2.9672 33.0425 1.36304 28.3118 1.37396C17.4264 1.39033 9.23645 9.56939 6.93932 22.7192C5.67345 29.9761 6.7047 35.8362 9.93485 39.6721C12.4884 42.7058 16.3461 44.3045 21.104 44.2936C31.9894 44.2772 40.1794 36.0981 42.4765 22.9483C43.7424 15.7132 42.7002 9.85311 39.4591 6.00639H39.4537Z" stroke="black" style="stroke:black;stroke-opacity:1;" stroke-width="1.6369" stroke-linecap="round" stroke-linejoin="round"/>
</svg>
